<?xml version="1.0" standalone="no"?>
<!DOCTYPE svg PUBLIC "-//W3C//DTD SVG 20010904//EN"
 "http://www.w3.org/TR/2001/REC-SVG-20010904/DTD/svg10.dtd">
<svg version="1.0" xmlns="http://www.w3.org/2000/svg"
 width="413.000000pt" height="413.000000pt" viewBox="0 0 413.000000 413.000000"
 preserveAspectRatio="xMidYMid meet">
<metadata>
Created by potrace 1.14, written by Peter Selinger 2001-2017
</metadata>
<g transform="translate(0.000000,413.000000) scale(0.100000,-0.100000)"
fill="#000000" stroke="none">
<path d="M0 2065 l0 -2065 2065 0 2065 0 0 2065 0 2065 -2065 0 -2065 0 0
-2065z m3405 1600 c46 -45 30 -97 -86 -267 -57 -86 -58 -88 -34 -88 59 0 115
-59 115 -120 l0 -21 42 23 c23 13 83 61 135 108 152 137 170 150 213 150 50 0
85 -39 76 -84 -6 -31 -63 -112 -129 -183 l-39 -42 29 -25 c25 -22 28 -31 28
-83 -1 -84 -55 -182 -162 -292 l-83 -84 25 -29 c50 -60 46 -124 -14 -201 -73
-95 -171 -188 -223 -212 -49 -23 -50 -24 -52 -69 -1 -32 -10 -58 -32 -88 -37
-53 -163 -145 -218 -160 l-41 -11 0 -67 c0 -61 -3 -72 -31 -107 -43 -54 -147
-130 -194 -143 -70 -19 -109 -1 -191 90 -40 44 -115 116 -168 159 -94 76 -221
203 -221 220 0 5 -35 10 -78 13 -110 6 -160 36 -281 166 -110 120 -166 155
-246 155 -81 0 -126 -32 -182 -128 -16 -27 -39 -54 -51 -60 -30 -13 -28 -19
12 -33 95 -34 169 -122 267 -315 157 -310 294 -452 484 -502 39 -10 106 -15
195 -15 221 0 335 -37 441 -140 44 -43 67 -78 103 -155 82 -175 88 -183 155
-227 55 -34 111 -39 111 -8 0 11 -11 38 -25 60 -41 64 -26 120 31 120 23 0 64
-31 64 -49 0 -4 11 -20 25 -35 30 -33 89 -37 105 -7 20 37 11 69 -28 108 -48
47 -57 69 -37 99 22 33 49 38 94 14 22 -11 51 -20 65 -20 43 0 75 72 43 98
-14 12 -58 23 -192 47 -158 29 -287 95 -412 209 -67 62 -78 92 -46 128 28 31
55 20 138 -53 122 -107 226 -152 423 -184 138 -23 201 -67 218 -154 15 -71
-47 -181 -110 -197 -21 -5 -24 -13 -28 -65 -3 -46 -10 -67 -34 -96 -37 -47
-87 -73 -138 -73 -32 0 -44 -6 -75 -41 -32 -36 -43 -42 -89 -47 -62 -5 -117
13 -185 61 -67 47 -110 108 -158 220 -53 124 -111 192 -201 232 -60 27 -73 29
-253 36 -210 8 -254 17 -368 77 -83 43 -203 153 -267 245 -27 37 -50 64 -53
60 -2 -4 -21 -60 -42 -123 -40 -123 -56 -150 -88 -150 -21 0 -952 311 -987
330 -39 21 -34 45 71 357 84 248 108 308 127 321 23 15 35 12 243 -59 l218
-74 38 36 c21 20 48 43 60 51 13 8 40 42 62 75 66 102 160 149 282 141 111 -8
196 -61 304 -190 66 -78 125 -121 181 -131 l31 -6 -13 57 c-28 117 -14 210 51
347 132 281 385 515 756 701 81 40 164 88 184 106 21 17 64 73 98 122 33 50
74 108 91 129 55 69 109 84 151 42z m-1837 -1393 c37 -47 -24 -118 -74 -84
-20 13 -32 47 -23 69 16 43 68 51 97 15z"/>
<path d="M2915 3152 c-82 -42 -191 -105 -241 -140 -225 -154 -416 -385 -479
-581 -19 -58 -18 -202 2 -222 21 -21 106 92 185 247 137 263 177 298 568 494
124 62 240 125 259 140 31 26 71 77 71 91 0 12 -150 -74 -276 -158 -68 -46
-134 -83 -147 -83 -28 0 -57 28 -57 57 0 25 20 42 158 138 175 122 167 125
-43 17z"/>
<path d="M3088 2889 c-167 -83 -333 -171 -370 -195 -98 -66 -147 -126 -228
-285 -81 -157 -142 -244 -200 -287 l-40 -29 36 -42 c20 -23 83 -80 139 -127
57 -46 137 -121 178 -164 41 -44 81 -80 89 -80 20 0 125 76 138 100 20 37 11
72 -30 116 -41 45 -52 88 -28 112 15 15 74 16 83 2 11 -17 87 -11 132 11 50
24 143 105 143 124 0 17 -16 22 -92 31 -90 10 -118 26 -118 70 0 41 25 49 154
49 159 1 182 11 286 124 83 89 104 126 79 142 -20 13 -85 10 -159 -6 -36 -8
-79 -14 -96 -15 -56 0 -84 59 -45 94 10 9 64 26 120 38 97 21 104 24 181 85
75 60 146 145 184 221 9 17 13 32 9 32 -5 -1 -39 -28 -78 -61 -85 -74 -190
-138 -239 -146 -50 -8 -86 17 -86 60 0 37 39 80 123 136 42 29 55 41 43 41 -3
0 -141 -68 -308 -151z"/>
<path d="M840 2154 c0 -12 165 -285 181 -300 38 -34 100 -30 250 17 76 23 139
46 139 51 0 4 -12 21 -27 37 -23 24 -74 44 -285 114 -142 47 -258 83 -258 81z"/>
<path d="M705 2113 c-16 -39 -103 -303 -100 -303 5 0 227 99 232 104 4 3 -80
151 -112 199 -12 17 -13 17 -20 0z"/>
<path d="M778 1758 c-65 -28 -118 -54 -118 -57 0 -3 147 -55 328 -115 180 -60
333 -111 339 -114 7 -2 -25 52 -71 120 l-84 123 -50 -3 c-67 -5 -139 20 -187
63 -20 19 -38 35 -39 35 0 -1 -54 -24 -118 -52z"/>
<path d="M1375 1782 c-44 -14 -81 -26 -83 -28 -4 -3 141 -223 148 -224 3 0 20
45 39 99 l35 100 -19 40 c-10 23 -23 41 -29 40 -6 -1 -47 -13 -91 -27z"/>
</g>
</svg>
