<?xml version="1.0" standalone="no"?>
<!DOCTYPE svg PUBLIC "-//W3C//DTD SVG 20010904//EN"
 "http://www.w3.org/TR/2001/REC-SVG-20010904/DTD/svg10.dtd">
<svg version="1.0" xmlns="http://www.w3.org/2000/svg"
 width="310.000000pt" height="310.000000pt" viewBox="0 0 310.000000 310.000000"
 preserveAspectRatio="xMidYMid meet">
<metadata>
Created by potrace 1.14, written by Peter Selinger 2001-2017
</metadata>
<g transform="translate(0.000000,310.000000) scale(0.100000,-0.100000)"
fill="#000000" stroke="none">
<path d="M0 1550 l0 -1550 1550 0 1550 0 0 90 0 90 -27 6 c-88 19 -245 71
-330 110 -17 8 -33 14 -36 14 -3 0 -49 20 -101 45 -53 25 -138 65 -188 89
-300 141 -438 182 -878 264 -139 25 -158 27 -450 25 -249 -1 -336 -6 -475 -23
-224 -29 -300 -29 -361 0 -99 48 -97 155 5 322 12 20 89 98 169 171 174 159
506 493 692 697 73 80 154 168 180 195 25 28 120 133 210 235 91 102 167 187
170 190 4 3 64 70 135 150 71 80 159 177 196 215 97 102 179 196 179 206 0 5
-477 9 -1095 9 l-1095 0 0 -1550z"/>
<path d="M2293 3083 c-11 -30 -221 -305 -254 -333 -3 -3 -29 -32 -59 -65 -64
-73 -179 -194 -315 -335 -147 -152 -246 -261 -340 -375 -91 -111 -175 -231
-175 -249 0 -18 31 -43 145 -121 223 -152 524 -391 760 -601 120 -107 577
-466 685 -539 129 -86 253 -147 312 -153 l48 -5 0 1397 0 1396 -400 0 c-372 0
-401 -1 -407 -17z m72 -941 c90 -29 148 -56 222 -105 38 -24 82 -52 98 -61 33
-18 39 -22 138 -85 77 -49 120 -104 115 -147 -3 -25 -11 -31 -78 -54 -84 -30
-193 -83 -320 -157 -101 -58 -237 -126 -300 -148 -92 -33 -125 -37 -285 -32
-222 7 -285 28 -344 115 -22 32 -25 47 -24 112 1 83 25 157 89 276 93 172 182
248 345 294 93 25 251 22 344 -8z"/>
<path d="M2180 2011 c-152 -20 -296 -88 -395 -186 -62 -61 -73 -78 -88 -131
-16 -55 -16 -64 -2 -106 38 -109 161 -169 348 -167 240 1 462 105 565 264 35
54 38 158 6 201 -33 45 -86 83 -145 104 -63 22 -205 32 -289 21z m85 -95 c23
-14 55 -44 71 -67 27 -39 29 -50 29 -129 0 -75 -3 -91 -25 -122 -95 -139 -308
-127 -388 22 -20 39 -23 55 -19 117 5 82 32 134 89 168 47 28 65 33 137 34 51
1 73 -4 106 -23z"/>
<path d="M1028 1618 c-269 -210 -621 -582 -679 -716 -24 -56 -24 -75 1 -97 19
-17 27 -18 108 -7 304 42 1120 40 1345 -3 93 -18 293 -31 331 -21 36 9 33 26
-17 77 -86 87 -90 90 -392 314 -179 134 -395 303 -530 418 -49 42 -95 77 -102
77 -6 0 -35 -19 -65 -42z m-367 -528 c81 -23 100 -87 39 -130 -63 -45 -154
-29 -190 33 -13 24 -13 28 6 54 12 15 36 33 55 40 43 15 46 15 90 3z"/>
</g>
</svg>
